<svg width="40" height="32" viewBox="0 0 40 32" fill="none" xmlns="http://www.w3.org/2000/svg">
<path d="M39.3635 3.79578C37.9159 4.43722 36.3609 4.87063 34.7261 5.06653C36.4129 4.0572 37.6748 2.46864 38.2765 0.597263C36.6917 1.5386 34.9572 2.2012 33.1485 2.55625C31.9321 1.25754 30.3211 0.396729 28.5654 0.107471C26.8097 -0.181787 25.0076 0.11669 23.4389 0.956559C21.8702 1.79643 20.6227 3.1307 19.89 4.75223C19.1574 6.37375 18.9806 8.1918 19.387 9.92412C16.1758 9.76288 13.0344 8.92824 10.1667 7.47435C7.29891 6.02047 4.7689 3.97983 2.74085 1.48487C2.0474 2.68107 1.64867 4.06796 1.64867 5.545C1.6479 6.87468 1.97534 8.18399 2.60195 9.35676C3.22856 10.5295 4.13495 11.5295 5.24072 12.268C3.95832 12.2272 2.70422 11.8806 1.58279 11.2573V11.3613C1.58266 13.2262 2.22775 15.0337 3.40861 16.4772C4.58946 17.9206 6.23334 18.9111 8.06132 19.2804C6.87168 19.6024 5.62444 19.6498 4.41379 19.4191C4.92953 21.0238 5.93416 22.427 7.28703 23.4323C8.63989 24.4376 10.2733 24.9948 11.9585 25.0256C9.09773 27.2714 5.56471 28.4896 1.92778 28.4842C1.28354 28.4844 0.639837 28.4468 0 28.3715C3.69169 30.7452 7.98909 32.0049 12.378 32C27.2351 32 35.3571 19.6948 35.3571 9.02264C35.3571 8.67591 35.3484 8.32572 35.3328 7.979C36.9127 6.8365 38.2764 5.42174 39.36 3.80099L39.3635 3.79578V3.79578Z" fill="white"/>
</svg>
